<mxfile host="app.diagrams.net" agent="Mozilla/5.0 (Windows NT 10.0; Win64; x64; rv:132.0) Gecko/20100101 Firefox/132.0" version="24.8.3">
  <diagram name="Page-1" id="im4f84TJx31p4GjBVJc7">
    <mxGraphModel dx="1728" dy="945" grid="1" gridSize="10" guides="1" tooltips="1" connect="1" arrows="1" fold="1" page="1" pageScale="1" pageWidth="827" pageHeight="1169" math="0" shadow="0">
      <root>
        <mxCell id="0" />
        <mxCell id="1" parent="0" />
        <mxCell id="ZpfbbZLWPoLLmUBdWNGZ-46" style="edgeStyle=orthogonalEdgeStyle;rounded=0;orthogonalLoop=1;jettySize=auto;html=1;entryX=0;entryY=0.5;entryDx=0;entryDy=0;curved=1;" parent="1" source="ZpfbbZLWPoLLmUBdWNGZ-24" target="ZpfbbZLWPoLLmUBdWNGZ-30" edge="1">
          <mxGeometry relative="1" as="geometry" />
        </mxCell>
        <mxCell id="ZpfbbZLWPoLLmUBdWNGZ-24" value="Data Collection" style="swimlane;whiteSpace=wrap;html=1;" parent="1" vertex="1">
          <mxGeometry x="10.000000000000004" y="10" width="200" height="270" as="geometry" />
        </mxCell>
        <mxCell id="ZpfbbZLWPoLLmUBdWNGZ-40" style="edgeStyle=orthogonalEdgeStyle;rounded=0;orthogonalLoop=1;jettySize=auto;html=1;entryX=0.5;entryY=0;entryDx=0;entryDy=0;" parent="ZpfbbZLWPoLLmUBdWNGZ-24" source="ZpfbbZLWPoLLmUBdWNGZ-26" target="ZpfbbZLWPoLLmUBdWNGZ-27" edge="1">
          <mxGeometry relative="1" as="geometry" />
        </mxCell>
        <mxCell id="ZpfbbZLWPoLLmUBdWNGZ-26" value="Read CSV(s)" style="rounded=1;whiteSpace=wrap;arcSize=50;strokeWidth=2;" parent="ZpfbbZLWPoLLmUBdWNGZ-24" vertex="1">
          <mxGeometry x="20.5" y="40" width="159" height="34" as="geometry" />
        </mxCell>
        <mxCell id="ZpfbbZLWPoLLmUBdWNGZ-41" style="edgeStyle=orthogonalEdgeStyle;rounded=0;orthogonalLoop=1;jettySize=auto;html=1;entryX=0.5;entryY=0;entryDx=0;entryDy=0;" parent="ZpfbbZLWPoLLmUBdWNGZ-24" source="ZpfbbZLWPoLLmUBdWNGZ-27" target="ZpfbbZLWPoLLmUBdWNGZ-28" edge="1">
          <mxGeometry relative="1" as="geometry" />
        </mxCell>
        <mxCell id="ZpfbbZLWPoLLmUBdWNGZ-27" value="Impute missing values" style="rounded=1;whiteSpace=wrap;arcSize=50;strokeWidth=2;" parent="ZpfbbZLWPoLLmUBdWNGZ-24" vertex="1">
          <mxGeometry x="20.5" y="100" width="159" height="34" as="geometry" />
        </mxCell>
        <mxCell id="ZpfbbZLWPoLLmUBdWNGZ-42" style="edgeStyle=orthogonalEdgeStyle;rounded=0;orthogonalLoop=1;jettySize=auto;html=1;entryX=0.5;entryY=0;entryDx=0;entryDy=0;" parent="ZpfbbZLWPoLLmUBdWNGZ-24" source="ZpfbbZLWPoLLmUBdWNGZ-28" target="ZpfbbZLWPoLLmUBdWNGZ-29" edge="1">
          <mxGeometry relative="1" as="geometry" />
        </mxCell>
        <mxCell id="ZpfbbZLWPoLLmUBdWNGZ-28" value="Combine DataFrames if concurrent " style="rounded=1;whiteSpace=wrap;arcSize=50;strokeWidth=2;" parent="ZpfbbZLWPoLLmUBdWNGZ-24" vertex="1">
          <mxGeometry x="20.5" y="160" width="159" height="34" as="geometry" />
        </mxCell>
        <mxCell id="ZpfbbZLWPoLLmUBdWNGZ-29" value="Return combined DataFrame" style="rounded=1;whiteSpace=wrap;arcSize=50;strokeWidth=2;" parent="ZpfbbZLWPoLLmUBdWNGZ-24" vertex="1">
          <mxGeometry x="20.5" y="220" width="159" height="34" as="geometry" />
        </mxCell>
        <mxCell id="ZpfbbZLWPoLLmUBdWNGZ-115" style="edgeStyle=orthogonalEdgeStyle;rounded=0;orthogonalLoop=1;jettySize=auto;html=1;entryX=0;entryY=0.5;entryDx=0;entryDy=0;curved=1;" parent="1" target="ZpfbbZLWPoLLmUBdWNGZ-47" edge="1">
          <mxGeometry relative="1" as="geometry">
            <mxPoint x="450.1" y="115" as="sourcePoint" />
          </mxGeometry>
        </mxCell>
        <mxCell id="ZpfbbZLWPoLLmUBdWNGZ-30" value="Data Processing" style="swimlane;whiteSpace=wrap;html=1;" parent="1" vertex="1">
          <mxGeometry x="249.99999999999997" y="10" width="200" height="210" as="geometry" />
        </mxCell>
        <mxCell id="ZpfbbZLWPoLLmUBdWNGZ-44" style="edgeStyle=orthogonalEdgeStyle;rounded=0;orthogonalLoop=1;jettySize=auto;html=1;entryX=0.5;entryY=0;entryDx=0;entryDy=0;" parent="ZpfbbZLWPoLLmUBdWNGZ-30" source="ZpfbbZLWPoLLmUBdWNGZ-31" target="ZpfbbZLWPoLLmUBdWNGZ-32" edge="1">
          <mxGeometry relative="1" as="geometry" />
        </mxCell>
        <mxCell id="ZpfbbZLWPoLLmUBdWNGZ-31" value="Scale test/train or full data" style="rounded=1;whiteSpace=wrap;arcSize=50;strokeWidth=2;" parent="ZpfbbZLWPoLLmUBdWNGZ-30" vertex="1">
          <mxGeometry x="20.5" y="40" width="159" height="34" as="geometry" />
        </mxCell>
        <mxCell id="ZpfbbZLWPoLLmUBdWNGZ-45" style="edgeStyle=orthogonalEdgeStyle;rounded=0;orthogonalLoop=1;jettySize=auto;html=1;entryX=0.5;entryY=0;entryDx=0;entryDy=0;" parent="ZpfbbZLWPoLLmUBdWNGZ-30" source="ZpfbbZLWPoLLmUBdWNGZ-32" target="ZpfbbZLWPoLLmUBdWNGZ-35" edge="1">
          <mxGeometry relative="1" as="geometry" />
        </mxCell>
        <mxCell id="ZpfbbZLWPoLLmUBdWNGZ-32" value="TimeSeriesGenerator for test/train or full" style="rounded=1;whiteSpace=wrap;arcSize=50;strokeWidth=2;" parent="ZpfbbZLWPoLLmUBdWNGZ-30" vertex="1">
          <mxGeometry x="20.5" y="100" width="159" height="34" as="geometry" />
        </mxCell>
        <mxCell id="ZpfbbZLWPoLLmUBdWNGZ-35" value="Return generator(s)" style="rounded=1;whiteSpace=wrap;arcSize=50;strokeWidth=2;" parent="ZpfbbZLWPoLLmUBdWNGZ-30" vertex="1">
          <mxGeometry x="20.5" y="160" width="159" height="34" as="geometry" />
        </mxCell>
        <mxCell id="ZpfbbZLWPoLLmUBdWNGZ-36" value="Model Evaluation (core or daily)" style="swimlane;whiteSpace=wrap;html=1;" parent="1" vertex="1">
          <mxGeometry x="249.99999999999997" y="330" width="200" height="210" as="geometry" />
        </mxCell>
        <mxCell id="ZpfbbZLWPoLLmUBdWNGZ-72" style="edgeStyle=orthogonalEdgeStyle;rounded=0;orthogonalLoop=1;jettySize=auto;html=1;" parent="ZpfbbZLWPoLLmUBdWNGZ-36" source="ZpfbbZLWPoLLmUBdWNGZ-37" target="ZpfbbZLWPoLLmUBdWNGZ-38" edge="1">
          <mxGeometry relative="1" as="geometry" />
        </mxCell>
        <mxCell id="ZpfbbZLWPoLLmUBdWNGZ-37" value="Input: train, test, &amp; pred data/generators" style="rounded=1;whiteSpace=wrap;arcSize=50;strokeWidth=2;" parent="ZpfbbZLWPoLLmUBdWNGZ-36" vertex="1">
          <mxGeometry x="20.5" y="40" width="159" height="34" as="geometry" />
        </mxCell>
        <mxCell id="ZpfbbZLWPoLLmUBdWNGZ-71" style="edgeStyle=orthogonalEdgeStyle;rounded=0;orthogonalLoop=1;jettySize=auto;html=1;" parent="ZpfbbZLWPoLLmUBdWNGZ-36" source="ZpfbbZLWPoLLmUBdWNGZ-38" target="ZpfbbZLWPoLLmUBdWNGZ-39" edge="1">
          <mxGeometry relative="1" as="geometry" />
        </mxCell>
        <mxCell id="ZpfbbZLWPoLLmUBdWNGZ-38" value="Log metrics" style="rounded=1;whiteSpace=wrap;arcSize=50;strokeWidth=2;" parent="ZpfbbZLWPoLLmUBdWNGZ-36" vertex="1">
          <mxGeometry x="20.5" y="100" width="159" height="34" as="geometry" />
        </mxCell>
        <mxCell id="ZpfbbZLWPoLLmUBdWNGZ-39" value="Log &amp; plot pred w. test" style="rounded=1;whiteSpace=wrap;arcSize=50;strokeWidth=2;" parent="ZpfbbZLWPoLLmUBdWNGZ-36" vertex="1">
          <mxGeometry x="20.5" y="160" width="159" height="34" as="geometry" />
        </mxCell>
        <mxCell id="ZpfbbZLWPoLLmUBdWNGZ-47" value="Hyper-Parameter Tuning" style="swimlane;whiteSpace=wrap;html=1;fillColor=#e1d5e7;strokeColor=#9673a6;" parent="1" vertex="1">
          <mxGeometry x="500" y="10" width="200" height="390" as="geometry" />
        </mxCell>
        <mxCell id="ZpfbbZLWPoLLmUBdWNGZ-48" style="edgeStyle=orthogonalEdgeStyle;rounded=0;orthogonalLoop=1;jettySize=auto;html=1;entryX=0.5;entryY=0;entryDx=0;entryDy=0;" parent="ZpfbbZLWPoLLmUBdWNGZ-47" edge="1">
          <mxGeometry relative="1" as="geometry">
            <mxPoint x="100" y="74" as="sourcePoint" />
          </mxGeometry>
        </mxCell>
        <mxCell id="ZpfbbZLWPoLLmUBdWNGZ-50" style="edgeStyle=orthogonalEdgeStyle;rounded=0;orthogonalLoop=1;jettySize=auto;html=1;entryX=0.5;entryY=0;entryDx=0;entryDy=0;" parent="ZpfbbZLWPoLLmUBdWNGZ-47" edge="1">
          <mxGeometry relative="1" as="geometry">
            <mxPoint x="100" y="134" as="sourcePoint" />
          </mxGeometry>
        </mxCell>
        <mxCell id="ZpfbbZLWPoLLmUBdWNGZ-52" style="edgeStyle=orthogonalEdgeStyle;rounded=0;orthogonalLoop=1;jettySize=auto;html=1;entryX=0.5;entryY=0;entryDx=0;entryDy=0;" parent="ZpfbbZLWPoLLmUBdWNGZ-47" edge="1">
          <mxGeometry relative="1" as="geometry">
            <mxPoint x="100" y="194" as="sourcePoint" />
          </mxGeometry>
        </mxCell>
        <mxCell id="ZpfbbZLWPoLLmUBdWNGZ-111" style="edgeStyle=orthogonalEdgeStyle;rounded=0;orthogonalLoop=1;jettySize=auto;html=1;entryX=0.5;entryY=0;entryDx=0;entryDy=0;fillColor=#f5f5f5;strokeColor=#666666;" parent="ZpfbbZLWPoLLmUBdWNGZ-47" source="ZpfbbZLWPoLLmUBdWNGZ-105" target="ZpfbbZLWPoLLmUBdWNGZ-106" edge="1">
          <mxGeometry relative="1" as="geometry" />
        </mxCell>
        <mxCell id="ZpfbbZLWPoLLmUBdWNGZ-105" value="Create keras model" style="rounded=1;whiteSpace=wrap;arcSize=50;strokeWidth=2;fillColor=#f5f5f5;strokeColor=#666666;fontColor=#333333;" parent="ZpfbbZLWPoLLmUBdWNGZ-47" vertex="1">
          <mxGeometry x="20.499999999999886" y="40" width="159" height="34" as="geometry" />
        </mxCell>
        <mxCell id="ZpfbbZLWPoLLmUBdWNGZ-112" style="edgeStyle=orthogonalEdgeStyle;rounded=0;orthogonalLoop=1;jettySize=auto;html=1;entryX=0.5;entryY=0;entryDx=0;entryDy=0;fillColor=#f5f5f5;strokeColor=#666666;" parent="ZpfbbZLWPoLLmUBdWNGZ-47" source="ZpfbbZLWPoLLmUBdWNGZ-106" target="ZpfbbZLWPoLLmUBdWNGZ-107" edge="1">
          <mxGeometry relative="1" as="geometry" />
        </mxCell>
        <mxCell id="ZpfbbZLWPoLLmUBdWNGZ-106" value="Wrap keras model" style="rounded=1;whiteSpace=wrap;arcSize=50;strokeWidth=2;fillColor=#f5f5f5;strokeColor=#666666;fontColor=#333333;" parent="ZpfbbZLWPoLLmUBdWNGZ-47" vertex="1">
          <mxGeometry x="20.499999999999886" y="100" width="159" height="34" as="geometry" />
        </mxCell>
        <mxCell id="ZpfbbZLWPoLLmUBdWNGZ-113" style="edgeStyle=orthogonalEdgeStyle;rounded=0;orthogonalLoop=1;jettySize=auto;html=1;fillColor=#f5f5f5;strokeColor=#666666;" parent="ZpfbbZLWPoLLmUBdWNGZ-47" source="ZpfbbZLWPoLLmUBdWNGZ-107" target="ZpfbbZLWPoLLmUBdWNGZ-108" edge="1">
          <mxGeometry relative="1" as="geometry" />
        </mxCell>
        <mxCell id="ZpfbbZLWPoLLmUBdWNGZ-107" value="Create parameter grid" style="rounded=1;whiteSpace=wrap;arcSize=50;strokeWidth=2;fillColor=#f5f5f5;strokeColor=#666666;fontColor=#333333;" parent="ZpfbbZLWPoLLmUBdWNGZ-47" vertex="1">
          <mxGeometry x="20.499999999999886" y="160" width="159" height="34" as="geometry" />
        </mxCell>
        <mxCell id="ZpfbbZLWPoLLmUBdWNGZ-114" style="edgeStyle=orthogonalEdgeStyle;rounded=0;orthogonalLoop=1;jettySize=auto;html=1;fillColor=#f5f5f5;strokeColor=#666666;" parent="ZpfbbZLWPoLLmUBdWNGZ-47" source="ZpfbbZLWPoLLmUBdWNGZ-108" target="ZpfbbZLWPoLLmUBdWNGZ-110" edge="1">
          <mxGeometry relative="1" as="geometry" />
        </mxCell>
        <mxCell id="ZpfbbZLWPoLLmUBdWNGZ-108" value="GridSearchCV" style="rounded=1;whiteSpace=wrap;arcSize=50;strokeWidth=2;fillColor=#f5f5f5;strokeColor=#666666;fontColor=#333333;" parent="ZpfbbZLWPoLLmUBdWNGZ-47" vertex="1">
          <mxGeometry x="20.499999999999886" y="220" width="159" height="34" as="geometry" />
        </mxCell>
        <mxCell id="ZpfbbZLWPoLLmUBdWNGZ-117" style="edgeStyle=orthogonalEdgeStyle;rounded=0;orthogonalLoop=1;jettySize=auto;html=1;fillColor=#f5f5f5;strokeColor=#666666;" parent="ZpfbbZLWPoLLmUBdWNGZ-47" source="ZpfbbZLWPoLLmUBdWNGZ-110" target="ZpfbbZLWPoLLmUBdWNGZ-116" edge="1">
          <mxGeometry relative="1" as="geometry" />
        </mxCell>
        <mxCell id="ZpfbbZLWPoLLmUBdWNGZ-110" value="Evaluate best parameters" style="rounded=1;whiteSpace=wrap;arcSize=50;strokeWidth=2;fillColor=#f5f5f5;strokeColor=#666666;fontColor=#333333;" parent="ZpfbbZLWPoLLmUBdWNGZ-47" vertex="1">
          <mxGeometry x="20.499999999999886" y="280" width="159" height="34" as="geometry" />
        </mxCell>
        <mxCell id="ZpfbbZLWPoLLmUBdWNGZ-116" value="Return best parameters" style="rounded=1;whiteSpace=wrap;arcSize=50;strokeWidth=2;fillColor=#f5f5f5;strokeColor=#666666;fontColor=#333333;" parent="ZpfbbZLWPoLLmUBdWNGZ-47" vertex="1">
          <mxGeometry x="20.499999999999886" y="340" width="159" height="34" as="geometry" />
        </mxCell>
        <mxCell id="ZpfbbZLWPoLLmUBdWNGZ-55" value="Best-Parameter Full Training" style="swimlane;whiteSpace=wrap;html=1;fillColor=#e1d5e7;strokeColor=#9673a6;" parent="1" vertex="1">
          <mxGeometry x="715" y="10" width="200" height="270" as="geometry" />
        </mxCell>
        <mxCell id="ZpfbbZLWPoLLmUBdWNGZ-56" style="edgeStyle=orthogonalEdgeStyle;rounded=0;orthogonalLoop=1;jettySize=auto;html=1;entryX=0.5;entryY=0;entryDx=0;entryDy=0;" parent="ZpfbbZLWPoLLmUBdWNGZ-55" edge="1">
          <mxGeometry relative="1" as="geometry">
            <mxPoint x="100" y="74" as="sourcePoint" />
          </mxGeometry>
        </mxCell>
        <mxCell id="ZpfbbZLWPoLLmUBdWNGZ-58" style="edgeStyle=orthogonalEdgeStyle;rounded=0;orthogonalLoop=1;jettySize=auto;html=1;entryX=0.5;entryY=0;entryDx=0;entryDy=0;" parent="ZpfbbZLWPoLLmUBdWNGZ-55" edge="1">
          <mxGeometry relative="1" as="geometry">
            <mxPoint x="100" y="134" as="sourcePoint" />
          </mxGeometry>
        </mxCell>
        <mxCell id="ZpfbbZLWPoLLmUBdWNGZ-60" style="edgeStyle=orthogonalEdgeStyle;rounded=0;orthogonalLoop=1;jettySize=auto;html=1;entryX=0.5;entryY=0;entryDx=0;entryDy=0;" parent="ZpfbbZLWPoLLmUBdWNGZ-55" edge="1">
          <mxGeometry relative="1" as="geometry">
            <mxPoint x="100" y="194" as="sourcePoint" />
          </mxGeometry>
        </mxCell>
        <mxCell id="ZpfbbZLWPoLLmUBdWNGZ-122" style="edgeStyle=orthogonalEdgeStyle;rounded=0;orthogonalLoop=1;jettySize=auto;html=1;entryX=1;entryY=0.5;entryDx=0;entryDy=0;curved=1;exitX=1;exitY=0.5;exitDx=0;exitDy=0;fillColor=#f5f5f5;strokeColor=#666666;" parent="ZpfbbZLWPoLLmUBdWNGZ-55" source="ZpfbbZLWPoLLmUBdWNGZ-120" target="ZpfbbZLWPoLLmUBdWNGZ-121" edge="1">
          <mxGeometry relative="1" as="geometry">
            <Array as="points">
              <mxPoint x="195" y="65" />
              <mxPoint x="195" y="117" />
            </Array>
          </mxGeometry>
        </mxCell>
        <mxCell id="ZpfbbZLWPoLLmUBdWNGZ-120" value="Use best parameters to create pipeline (scaling, generator, keras)" style="rounded=1;whiteSpace=wrap;arcSize=50;strokeWidth=2;fillColor=#f5f5f5;strokeColor=#666666;fontColor=#333333;" parent="ZpfbbZLWPoLLmUBdWNGZ-55" vertex="1">
          <mxGeometry x="20.5" y="40" width="159" height="50" as="geometry" />
        </mxCell>
        <mxCell id="ZpfbbZLWPoLLmUBdWNGZ-124" style="edgeStyle=orthogonalEdgeStyle;rounded=0;orthogonalLoop=1;jettySize=auto;html=1;entryX=0.5;entryY=0;entryDx=0;entryDy=0;fillColor=#f5f5f5;strokeColor=#666666;" parent="ZpfbbZLWPoLLmUBdWNGZ-55" source="ZpfbbZLWPoLLmUBdWNGZ-121" target="ZpfbbZLWPoLLmUBdWNGZ-123" edge="1">
          <mxGeometry relative="1" as="geometry" />
        </mxCell>
        <mxCell id="ZpfbbZLWPoLLmUBdWNGZ-131" style="edgeStyle=orthogonalEdgeStyle;rounded=0;orthogonalLoop=1;jettySize=auto;html=1;entryX=0;entryY=0.5;entryDx=0;entryDy=0;curved=1;exitX=0;exitY=0.5;exitDx=0;exitDy=0;fillColor=#f5f5f5;strokeColor=#666666;" parent="ZpfbbZLWPoLLmUBdWNGZ-55" source="ZpfbbZLWPoLLmUBdWNGZ-121" target="ZpfbbZLWPoLLmUBdWNGZ-130" edge="1">
          <mxGeometry relative="1" as="geometry">
            <Array as="points">
              <mxPoint x="5" y="117" />
              <mxPoint x="5" y="237" />
            </Array>
          </mxGeometry>
        </mxCell>
        <mxCell id="ZpfbbZLWPoLLmUBdWNGZ-121" value="Train on full data" style="rounded=1;whiteSpace=wrap;arcSize=50;strokeWidth=2;fillColor=#f5f5f5;strokeColor=#666666;fontColor=#333333;" parent="ZpfbbZLWPoLLmUBdWNGZ-55" vertex="1">
          <mxGeometry x="20.499999999999773" y="100" width="159" height="34" as="geometry" />
        </mxCell>
        <mxCell id="ZpfbbZLWPoLLmUBdWNGZ-123" value="Save forecast of 3 upcoming days" style="rounded=1;whiteSpace=wrap;arcSize=50;strokeWidth=2;fillColor=#f5f5f5;strokeColor=#666666;fontColor=#333333;" parent="ZpfbbZLWPoLLmUBdWNGZ-55" vertex="1">
          <mxGeometry x="20.499999999999773" y="160" width="159" height="34" as="geometry" />
        </mxCell>
        <mxCell id="ZpfbbZLWPoLLmUBdWNGZ-130" value="Save pipeline object" style="rounded=1;whiteSpace=wrap;arcSize=50;strokeWidth=2;fillColor=#f5f5f5;strokeColor=#666666;fontColor=#333333;" parent="ZpfbbZLWPoLLmUBdWNGZ-55" vertex="1">
          <mxGeometry x="20.499999999999773" y="220" width="159" height="34" as="geometry" />
        </mxCell>
        <mxCell id="ZpfbbZLWPoLLmUBdWNGZ-63" value="Daily Training" style="swimlane;whiteSpace=wrap;html=1;fillColor=#e1d5e7;strokeColor=#9673a6;" parent="1" vertex="1">
          <mxGeometry x="500" y="450" width="200" height="280" as="geometry" />
        </mxCell>
        <mxCell id="ZpfbbZLWPoLLmUBdWNGZ-64" style="edgeStyle=orthogonalEdgeStyle;rounded=0;orthogonalLoop=1;jettySize=auto;html=1;entryX=0.5;entryY=0;entryDx=0;entryDy=0;" parent="ZpfbbZLWPoLLmUBdWNGZ-63" edge="1">
          <mxGeometry relative="1" as="geometry">
            <mxPoint x="99.99999999999955" y="74" as="sourcePoint" />
          </mxGeometry>
        </mxCell>
        <mxCell id="ZpfbbZLWPoLLmUBdWNGZ-66" style="edgeStyle=orthogonalEdgeStyle;rounded=0;orthogonalLoop=1;jettySize=auto;html=1;entryX=0.5;entryY=0;entryDx=0;entryDy=0;" parent="ZpfbbZLWPoLLmUBdWNGZ-63" edge="1">
          <mxGeometry relative="1" as="geometry">
            <mxPoint x="99.99999999999955" y="134" as="sourcePoint" />
          </mxGeometry>
        </mxCell>
        <mxCell id="ZpfbbZLWPoLLmUBdWNGZ-68" style="edgeStyle=orthogonalEdgeStyle;rounded=0;orthogonalLoop=1;jettySize=auto;html=1;entryX=0.5;entryY=0;entryDx=0;entryDy=0;" parent="ZpfbbZLWPoLLmUBdWNGZ-63" edge="1">
          <mxGeometry relative="1" as="geometry">
            <mxPoint x="99.99999999999955" y="194" as="sourcePoint" />
          </mxGeometry>
        </mxCell>
        <mxCell id="ZpfbbZLWPoLLmUBdWNGZ-128" style="edgeStyle=orthogonalEdgeStyle;rounded=0;orthogonalLoop=1;jettySize=auto;html=1;fillColor=#f5f5f5;strokeColor=#666666;" parent="ZpfbbZLWPoLLmUBdWNGZ-63" source="ZpfbbZLWPoLLmUBdWNGZ-125" target="ZpfbbZLWPoLLmUBdWNGZ-127" edge="1">
          <mxGeometry relative="1" as="geometry" />
        </mxCell>
        <mxCell id="ZpfbbZLWPoLLmUBdWNGZ-125" value="Train on new data" style="rounded=1;whiteSpace=wrap;arcSize=50;strokeWidth=2;fillColor=#f5f5f5;strokeColor=#666666;fontColor=#333333;" parent="ZpfbbZLWPoLLmUBdWNGZ-63" vertex="1">
          <mxGeometry x="20.49999999999968" y="100" width="159" height="34" as="geometry" />
        </mxCell>
        <mxCell id="OjyiqvU4Bi0x6nm2CT1B-5" style="edgeStyle=orthogonalEdgeStyle;rounded=0;orthogonalLoop=1;jettySize=auto;html=1;entryX=0.5;entryY=0;entryDx=0;entryDy=0;fillColor=#f5f5f5;strokeColor=#666666;" edge="1" parent="ZpfbbZLWPoLLmUBdWNGZ-63" source="ZpfbbZLWPoLLmUBdWNGZ-127" target="OjyiqvU4Bi0x6nm2CT1B-2">
          <mxGeometry relative="1" as="geometry" />
        </mxCell>
        <mxCell id="ZpfbbZLWPoLLmUBdWNGZ-127" value="Save forecast of 3 upcoming days" style="rounded=1;whiteSpace=wrap;arcSize=50;strokeWidth=2;fillColor=#f5f5f5;strokeColor=#666666;fontColor=#333333;" parent="ZpfbbZLWPoLLmUBdWNGZ-63" vertex="1">
          <mxGeometry x="20.49999999999968" y="160" width="159" height="34" as="geometry" />
        </mxCell>
        <mxCell id="ZpfbbZLWPoLLmUBdWNGZ-133" style="edgeStyle=orthogonalEdgeStyle;rounded=0;orthogonalLoop=1;jettySize=auto;html=1;fillColor=#f5f5f5;strokeColor=#666666;" parent="ZpfbbZLWPoLLmUBdWNGZ-63" source="ZpfbbZLWPoLLmUBdWNGZ-132" target="ZpfbbZLWPoLLmUBdWNGZ-125" edge="1">
          <mxGeometry relative="1" as="geometry" />
        </mxCell>
        <mxCell id="ZpfbbZLWPoLLmUBdWNGZ-132" value="Load pipeline object" style="rounded=1;whiteSpace=wrap;arcSize=50;strokeWidth=2;fillColor=#f5f5f5;strokeColor=#666666;fontColor=#333333;" parent="ZpfbbZLWPoLLmUBdWNGZ-63" vertex="1">
          <mxGeometry x="20.499999999999773" y="40" width="159" height="34" as="geometry" />
        </mxCell>
        <mxCell id="OjyiqvU4Bi0x6nm2CT1B-2" value="Use forecast and actual data of past 3 days for model eval" style="rounded=0;whiteSpace=wrap;arcSize=50;strokeWidth=2;fillColor=#ffe6cc;strokeColor=#d79b00;" vertex="1" parent="ZpfbbZLWPoLLmUBdWNGZ-63">
          <mxGeometry x="20.49999999999966" y="220" width="159" height="34" as="geometry" />
        </mxCell>
        <mxCell id="ZpfbbZLWPoLLmUBdWNGZ-74" value="Metrics Comparison" style="swimlane;whiteSpace=wrap;html=1;" parent="1" vertex="1">
          <mxGeometry x="10.000000000000004" y="330" width="200" height="210" as="geometry" />
        </mxCell>
        <mxCell id="ZpfbbZLWPoLLmUBdWNGZ-92" style="edgeStyle=orthogonalEdgeStyle;rounded=0;orthogonalLoop=1;jettySize=auto;html=1;exitX=0;exitY=0.5;exitDx=0;exitDy=0;" parent="ZpfbbZLWPoLLmUBdWNGZ-74" source="ZpfbbZLWPoLLmUBdWNGZ-76" target="ZpfbbZLWPoLLmUBdWNGZ-78" edge="1">
          <mxGeometry relative="1" as="geometry">
            <Array as="points">
              <mxPoint x="10" y="57" />
              <mxPoint x="10" y="80" />
              <mxPoint x="100" y="80" />
            </Array>
          </mxGeometry>
        </mxCell>
        <mxCell id="ZpfbbZLWPoLLmUBdWNGZ-76" value="Compare with best saved metrics" style="rounded=1;whiteSpace=wrap;arcSize=50;strokeWidth=2;" parent="ZpfbbZLWPoLLmUBdWNGZ-74" vertex="1">
          <mxGeometry x="20.5" y="40" width="159" height="34" as="geometry" />
        </mxCell>
        <mxCell id="ZpfbbZLWPoLLmUBdWNGZ-78" value="If better, save as new best" style="rounded=1;whiteSpace=wrap;arcSize=50;strokeWidth=2;" parent="ZpfbbZLWPoLLmUBdWNGZ-74" vertex="1">
          <mxGeometry x="20.5" y="100" width="159" height="34" as="geometry" />
        </mxCell>
        <mxCell id="ZpfbbZLWPoLLmUBdWNGZ-79" value="If worse beyond x-percent, raise re-training trigger" style="rounded=1;whiteSpace=wrap;arcSize=50;strokeWidth=2;" parent="ZpfbbZLWPoLLmUBdWNGZ-74" vertex="1">
          <mxGeometry x="20.5" y="160" width="159" height="34" as="geometry" />
        </mxCell>
        <mxCell id="ZpfbbZLWPoLLmUBdWNGZ-93" style="edgeStyle=orthogonalEdgeStyle;rounded=0;orthogonalLoop=1;jettySize=auto;html=1;exitX=0;exitY=0.5;exitDx=0;exitDy=0;entryX=0.5;entryY=0;entryDx=0;entryDy=0;" parent="ZpfbbZLWPoLLmUBdWNGZ-74" source="ZpfbbZLWPoLLmUBdWNGZ-76" target="ZpfbbZLWPoLLmUBdWNGZ-79" edge="1">
          <mxGeometry relative="1" as="geometry">
            <mxPoint x="31" y="67" as="sourcePoint" />
            <mxPoint x="107" y="160" as="targetPoint" />
            <Array as="points">
              <mxPoint x="10" y="57" />
              <mxPoint x="10" y="140" />
              <mxPoint x="100" y="140" />
            </Array>
          </mxGeometry>
        </mxCell>
        <mxCell id="ZpfbbZLWPoLLmUBdWNGZ-81" style="edgeStyle=orthogonalEdgeStyle;rounded=0;orthogonalLoop=1;jettySize=auto;html=1;curved=1;" parent="1" source="ZpfbbZLWPoLLmUBdWNGZ-38" target="ZpfbbZLWPoLLmUBdWNGZ-74" edge="1">
          <mxGeometry relative="1" as="geometry" />
        </mxCell>
        <mxCell id="OjyiqvU4Bi0x6nm2CT1B-7" value="if daily" style="edgeLabel;html=1;align=center;verticalAlign=middle;resizable=0;points=[];" vertex="1" connectable="0" parent="ZpfbbZLWPoLLmUBdWNGZ-81">
          <mxGeometry x="0.0079" relative="1" as="geometry">
            <mxPoint as="offset" />
          </mxGeometry>
        </mxCell>
        <mxCell id="ZpfbbZLWPoLLmUBdWNGZ-86" value="Interface" style="swimlane;whiteSpace=wrap;html=1;" parent="1" vertex="1">
          <mxGeometry x="249.9" y="584" width="200.1" height="206" as="geometry" />
        </mxCell>
        <mxCell id="ZpfbbZLWPoLLmUBdWNGZ-136" style="edgeStyle=orthogonalEdgeStyle;rounded=0;orthogonalLoop=1;jettySize=auto;html=1;exitX=0;exitY=0.5;exitDx=0;exitDy=0;" parent="ZpfbbZLWPoLLmUBdWNGZ-86" source="ZpfbbZLWPoLLmUBdWNGZ-88" target="ZpfbbZLWPoLLmUBdWNGZ-90" edge="1">
          <mxGeometry relative="1" as="geometry">
            <Array as="points">
              <mxPoint x="10" y="57" />
              <mxPoint x="10" y="80" />
              <mxPoint x="100" y="80" />
            </Array>
          </mxGeometry>
        </mxCell>
        <mxCell id="ZpfbbZLWPoLLmUBdWNGZ-88" value="Input: historical data of past day" style="rounded=1;whiteSpace=wrap;arcSize=50;strokeWidth=2;" parent="ZpfbbZLWPoLLmUBdWNGZ-86" vertex="1">
          <mxGeometry x="20.5" y="40" width="159" height="34" as="geometry" />
        </mxCell>
        <mxCell id="ZpfbbZLWPoLLmUBdWNGZ-90" value="Daily, train model on new data" style="rounded=1;whiteSpace=wrap;arcSize=50;strokeWidth=2;" parent="ZpfbbZLWPoLLmUBdWNGZ-86" vertex="1">
          <mxGeometry x="20.5" y="100" width="159" height="34" as="geometry" />
        </mxCell>
        <mxCell id="OjyiqvU4Bi0x6nm2CT1B-8" value="Raise full training requirement" style="rounded=0;whiteSpace=wrap;arcSize=50;strokeWidth=2;fillColor=#ffe6cc;strokeColor=#d79b00;" vertex="1" parent="ZpfbbZLWPoLLmUBdWNGZ-86">
          <mxGeometry x="20.5" y="156" width="159" height="34" as="geometry" />
        </mxCell>
        <mxCell id="ZpfbbZLWPoLLmUBdWNGZ-119" style="edgeStyle=orthogonalEdgeStyle;rounded=0;orthogonalLoop=1;jettySize=auto;html=1;entryX=1;entryY=0.5;entryDx=0;entryDy=0;curved=1;" parent="1" source="ZpfbbZLWPoLLmUBdWNGZ-110" target="ZpfbbZLWPoLLmUBdWNGZ-36" edge="1">
          <mxGeometry relative="1" as="geometry" />
        </mxCell>
        <mxCell id="ZpfbbZLWPoLLmUBdWNGZ-150" style="edgeStyle=orthogonalEdgeStyle;rounded=0;orthogonalLoop=1;jettySize=auto;html=1;entryX=0.5;entryY=1;entryDx=0;entryDy=0;curved=1;" parent="1" source="ZpfbbZLWPoLLmUBdWNGZ-90" target="ZpfbbZLWPoLLmUBdWNGZ-63" edge="1">
          <mxGeometry relative="1" as="geometry" />
        </mxCell>
        <mxCell id="OjyiqvU4Bi0x6nm2CT1B-6" style="edgeStyle=orthogonalEdgeStyle;rounded=0;orthogonalLoop=1;jettySize=auto;html=1;entryX=1;entryY=0.5;entryDx=0;entryDy=0;curved=1;" edge="1" parent="1" source="OjyiqvU4Bi0x6nm2CT1B-2" target="ZpfbbZLWPoLLmUBdWNGZ-36">
          <mxGeometry relative="1" as="geometry" />
        </mxCell>
        <mxCell id="OjyiqvU4Bi0x6nm2CT1B-9" style="edgeStyle=orthogonalEdgeStyle;rounded=0;orthogonalLoop=1;jettySize=auto;html=1;entryX=0;entryY=0.5;entryDx=0;entryDy=0;curved=1;" edge="1" parent="1" source="ZpfbbZLWPoLLmUBdWNGZ-79" target="OjyiqvU4Bi0x6nm2CT1B-8">
          <mxGeometry relative="1" as="geometry" />
        </mxCell>
        <mxCell id="OjyiqvU4Bi0x6nm2CT1B-10" style="edgeStyle=orthogonalEdgeStyle;rounded=0;orthogonalLoop=1;jettySize=auto;html=1;entryX=1;entryY=0.5;entryDx=0;entryDy=0;curved=1;exitX=0.5;exitY=1;exitDx=0;exitDy=0;" edge="1" parent="1" source="ZpfbbZLWPoLLmUBdWNGZ-130" target="ZpfbbZLWPoLLmUBdWNGZ-132">
          <mxGeometry relative="1" as="geometry" />
        </mxCell>
        <mxCell id="OjyiqvU4Bi0x6nm2CT1B-11" style="edgeStyle=orthogonalEdgeStyle;rounded=0;orthogonalLoop=1;jettySize=auto;html=1;entryX=0;entryY=0.5;entryDx=0;entryDy=0;curved=1;" edge="1" parent="1" source="ZpfbbZLWPoLLmUBdWNGZ-116" target="ZpfbbZLWPoLLmUBdWNGZ-120">
          <mxGeometry relative="1" as="geometry" />
        </mxCell>
      </root>
    </mxGraphModel>
  </diagram>
</mxfile>
